<svg width="26" height="26" viewBox="0 0 26 26" fill="none" xmlns="http://www.w3.org/2000/svg">
<path d="M13.0001 0C5.82129 0 0 5.96734 0 13.329C0 19.2182 3.72493 24.2146 8.89027 25.9771C9.53997 26.1005 9.7785 25.6879 9.7785 25.3359C9.7785 25.018 9.76644 23.968 9.76085 22.8543C6.1442 23.6606 5.38105 21.2816 5.38105 21.2816C4.78968 19.7409 3.93762 19.3312 3.93762 19.3312C2.75812 18.504 4.02653 18.5209 4.02653 18.5209C5.33196 18.6148 6.01934 19.8945 6.01934 19.8945C7.17882 21.9323 9.06055 21.3432 9.80239 21.0026C9.91907 20.1413 10.256 19.5528 10.6278 19.2202C7.74026 18.8832 4.70486 17.7402 4.70486 12.6328C4.70486 11.1776 5.2127 9.98854 6.04431 9.05509C5.90934 8.71914 5.46436 7.36366 6.17025 5.52766C6.17025 5.52766 7.26192 5.16942 9.74621 6.89395C10.7832 6.59862 11.8953 6.45051 13.0001 6.44544C14.1049 6.45051 15.2179 6.59862 16.2568 6.89395C18.7381 5.16942 19.8282 5.52766 19.8282 5.52766C20.5359 7.36366 20.0907 8.71914 19.9557 9.05509C20.7892 9.98854 21.2936 11.1776 21.2936 12.6328C21.2936 17.7524 18.2524 18.8796 15.3576 19.2096C15.8239 19.6233 16.2394 20.4344 16.2394 21.678C16.2394 23.4612 16.2243 24.8966 16.2243 25.3359C16.2243 25.6906 16.4583 26.1062 17.1173 25.9753C22.2798 24.2108 26 19.2162 26 13.329C26 5.96734 20.1796 0 13.0001 0Z" fill="#2C2C2C"/>
<path d="M4.92384 19.1377C4.89521 19.2041 4.7936 19.2237 4.70103 19.1783C4.60674 19.1348 4.55378 19.0445 4.58435 18.9781C4.61234 18.9099 4.71416 18.8911 4.80824 18.9364C4.90275 18.9801 4.95657 19.0712 4.92384 19.1377Z" fill="#2C2C2C"/>
<path d="M5.45043 19.7398C5.38843 19.7987 5.26723 19.7713 5.185 19.6782C5.09996 19.5853 5.08403 19.461 5.14689 19.4012C5.21083 19.3422 5.32837 19.3698 5.41362 19.4628C5.49866 19.5568 5.51523 19.6802 5.45043 19.7398Z" fill="#2C2C2C"/>
<path d="M5.96297 20.5075C5.88332 20.5642 5.75308 20.511 5.67256 20.3925C5.59291 20.274 5.59291 20.1318 5.67428 20.0749C5.75501 20.0179 5.88332 20.0691 5.96491 20.1868C6.04434 20.3071 6.04434 20.4494 5.96297 20.5075Z" fill="#2C2C2C"/>
<path d="M6.66521 21.2491C6.59395 21.3297 6.44218 21.3081 6.3311 21.1981C6.21743 21.0907 6.18579 20.9381 6.25726 20.8576C6.32938 20.7768 6.48201 20.7995 6.59395 20.9086C6.70676 21.0158 6.7412 21.1694 6.66521 21.2491Z" fill="#2C2C2C"/>
<path d="M7.63394 21.6797C7.60251 21.7841 7.45634 21.8316 7.30909 21.7872C7.16206 21.7415 7.06583 21.6193 7.09554 21.5138C7.1261 21.4087 7.27292 21.3592 7.42125 21.4067C7.56807 21.4522 7.66451 21.5736 7.63394 21.6797Z" fill="#2C2C2C"/>
<path d="M8.69786 21.7596C8.70152 21.8696 8.57666 21.9607 8.42209 21.9625C8.26666 21.9662 8.14094 21.8773 8.13922 21.7691C8.13922 21.6581 8.26128 21.5678 8.41671 21.5652C8.57128 21.5621 8.69786 21.6504 8.69786 21.7596Z" fill="#2C2C2C"/>
<path d="M9.68788 21.5868C9.70639 21.6941 9.59897 21.8042 9.44548 21.8334C9.29457 21.8618 9.15485 21.7956 9.1357 21.6892C9.11697 21.5793 9.22633 21.4692 9.37702 21.4407C9.53073 21.4133 9.66829 21.4778 9.68788 21.5868Z" fill="#2C2C2C"/>
</svg>
