<svg width="27" height="27" viewBox="0 0 27 27" fill="none" xmlns="http://www.w3.org/2000/svg">
<path fill-rule="evenodd" clip-rule="evenodd" d="M13.0861 0.117432C5.90636 0.117432 0.0860596 5.93773 0.0860596 13.1174C0.0860596 20.2971 5.90636 26.1174 13.0861 26.1174C20.2658 26.1174 26.0861 20.2971 26.0861 13.1174C26.0861 5.93773 20.2658 0.117432 13.0861 0.117432ZM13.0674 14.2112L8.21035 10.6855V18.117H7.39905C6.94705 18.117 6.58776 17.7577 6.58776 17.3057V9.08849C6.58776 9.04061 6.59179 8.99689 6.59954 8.95698C6.61822 8.84018 6.66395 8.72651 6.73934 8.6249C7.00591 8.26561 7.52745 8.18449 7.89833 8.45105L13.079 12.2178L18.2945 8.40469C18.6537 8.13813 19.1637 8.21926 19.4303 8.59013C19.5729 8.78235 19.616 9.0177 19.5684 9.23584V17.3173C19.5684 17.7577 19.2091 18.117 18.7571 18.117H17.9458V10.6691L13.0674 14.2112Z" fill="#2C2C2C"/>
</svg>
