<svg width="27" height="27" viewBox="0 0 27 27" fill="none" xmlns="http://www.w3.org/2000/svg">
<path fill-rule="evenodd" clip-rule="evenodd" d="M13.0861 0.117432C5.90636 0.117432 0.0860596 5.93773 0.0860596 13.1174C0.0860596 20.2971 5.90636 26.1174 13.0861 26.1174C20.2658 26.1174 26.0861 20.2971 26.0861 13.1174C26.0861 5.93773 20.2658 0.117432 13.0861 0.117432ZM6.32693 10.8846H9.27301V19.7364H6.32693V10.8846ZM9.46706 8.14639C9.44794 7.27848 8.8273 6.61743 7.81946 6.61743C6.81162 6.61743 6.15273 7.27848 6.15273 8.14639C6.15273 8.99633 6.79215 9.67641 7.78122 9.67641H7.80004C8.8273 9.67641 9.46706 8.99633 9.46706 8.14639ZM16.5057 10.6767C18.4443 10.6767 19.8977 11.9422 19.8977 14.661L19.8976 19.7364H16.9516V15.0007C16.9516 13.8112 16.5253 12.9995 15.4588 12.9995C14.6449 12.9995 14.1601 13.5467 13.9472 14.0752C13.8693 14.2646 13.8502 14.5285 13.8502 14.793V19.7366H10.9037C10.9037 19.7366 10.9426 11.7154 10.9037 10.8848H13.8502V12.1386C14.2412 11.5359 14.9415 10.6767 16.5057 10.6767Z" fill="#2C2C2C"/>
</svg>
