<svg width="27" height="27" viewBox="0 0 27 27" fill="none" xmlns="http://www.w3.org/2000/svg">
<path fill-rule="evenodd" clip-rule="evenodd" d="M26.0861 13.1174C26.0861 20.2971 20.2658 26.1174 13.0861 26.1174C5.90636 26.1174 0.0860596 20.2971 0.0860596 13.1174C0.0860596 5.93773 5.90636 0.117432 13.0861 0.117432C20.2658 0.117432 26.0861 5.93773 26.0861 13.1174ZM6.25631 8.36917C6.41519 8.51573 6.49633 8.73097 6.47479 8.94873V16.7894C6.52194 17.0722 6.43482 17.3611 6.24012 17.5676L4.41939 19.8279V20.126H9.58217V19.8279L7.76144 17.5676C7.56532 17.3615 7.4728 17.0745 7.51059 16.7894V10.0085L12.0422 20.126H12.5682L16.4605 10.0085V18.0727C16.4605 18.2879 16.4605 18.3293 16.3229 18.4701L14.923 19.861V20.1591H21.7204V19.861L20.369 18.5032C20.2497 18.4101 20.1905 18.2572 20.2152 18.1058V8.12907C20.1905 7.97768 20.2497 7.82472 20.369 7.73165L21.7527 6.37383V6.07577H16.9622L13.5473 14.794L9.66309 6.07577H4.63788V6.37383L6.25631 8.36917Z" fill="#2C2C2C"/>
</svg>
