<svg width="27" height="27" viewBox="0 0 27 27" fill="none" xmlns="http://www.w3.org/2000/svg">
<path fill-rule="evenodd" clip-rule="evenodd" d="M13.0861 0.117432C5.90636 0.117432 0.0860596 5.93773 0.0860596 13.1174C0.0860596 20.2971 5.90636 26.1174 13.0861 26.1174C20.2658 26.1174 26.0861 20.2971 26.0861 13.1174C26.0861 5.93773 20.2658 0.117432 13.0861 0.117432ZM12.724 11.1338L12.6967 10.684C12.6149 9.51811 13.3332 8.45321 14.4699 8.0401C14.8882 7.89322 15.5975 7.87486 16.0612 8.00338C16.2431 8.05846 16.5886 8.24206 16.8341 8.40731L17.2797 8.71025L17.7707 8.55419C18.0435 8.47157 18.4073 8.33387 18.5709 8.24206C18.7255 8.15944 18.8619 8.11354 18.8619 8.14108C18.8619 8.29715 18.5255 8.8296 18.2436 9.12336C17.8617 9.53647 17.9708 9.57319 18.7437 9.29779C19.2075 9.14172 19.2166 9.14172 19.1256 9.31615C19.0711 9.40795 18.7892 9.72926 18.4891 10.023C17.9799 10.5279 17.9526 10.583 17.9526 11.0053C17.9526 11.6571 17.6434 13.0158 17.3343 13.7594C16.7614 15.1547 15.5338 16.596 14.3062 17.3213C12.5785 18.3403 10.2779 18.5973 8.34105 18.0006C7.69543 17.7986 6.58606 17.2846 6.58606 17.1928C6.58606 17.1652 6.92251 17.1285 7.3317 17.1193C8.18647 17.1009 9.04123 16.8623 9.76869 16.44L10.2597 16.1462L9.69594 15.9534C8.89574 15.678 8.17737 15.0446 7.99551 14.4479C7.94095 14.2551 7.95914 14.2459 8.46836 14.2459L8.99577 14.2367L8.5502 14.0256C8.02279 13.7594 7.54085 13.3095 7.30442 12.8505C7.13165 12.52 6.91342 11.6846 6.97707 11.6204C6.99525 11.5928 7.18621 11.6479 7.40445 11.7214C8.03188 11.9509 8.11372 11.8958 7.74999 11.5102C7.068 10.8125 6.85886 9.77516 7.18621 8.79288L7.3408 8.35223L7.94095 8.94894C9.16854 10.1515 10.6144 10.8676 12.2693 11.0787L12.724 11.1338Z" fill="#2C2C2C"/>
</svg>
