<svg width="21" height="27" viewBox="0 0 21 27" fill="none" xmlns="http://www.w3.org/2000/svg">
<path fill-rule="evenodd" clip-rule="evenodd" d="M6.7351 15.154H5.05132V13.4702H6.7351V15.154ZM6.7351 10.1026H5.05132V11.7864H6.7351V10.1026ZM6.7351 6.7351H5.05132V8.41887H6.7351V6.7351ZM6.7351 3.36755H5.05132V5.05132H6.7351V3.36755ZM20.2053 1.68377V21.8891C20.2053 22.8151 19.4476 23.5728 18.5215 23.5728H10.1026V26.9404L7.57699 24.4147L5.05132 26.9404V23.5728H1.68377C0.757699 23.5728 0 22.8151 0 21.8891V1.68377C0 0.757699 0.757699 0 1.68377 0H18.5215C19.4476 0 20.2053 0.757699 20.2053 1.68377ZM18.5215 18.5215H1.68377V21.8891H5.05132V20.2053H10.1026V21.8891H18.5215V18.5215ZM18.5215 1.68377H3.36755V16.8377H18.5215V1.68377Z" fill="#515151"/>
</svg>
